<svg width="12" height="12" viewBox="0 0 12 12" fill="none" xmlns="http://www.w3.org/2000/svg">
<path d="M6.0009 7.5C4.41586 7.5 3.0063 8.26532 2.1089 9.45298C1.91575 9.7086 1.81918 9.83641 1.82234 10.0091C1.82478 10.1426 1.90858 10.3109 2.01359 10.3933C2.1495 10.5 2.33784 10.5 2.71452 10.5H9.28729C9.66397 10.5 9.85231 10.5 9.98822 10.3933C10.0932 10.3109 10.177 10.1426 10.1795 10.0091C10.1826 9.83641 10.0861 9.7086 9.89291 9.45298C8.9955 8.26532 7.58594 7.5 6.0009 7.5Z" stroke="#525252" stroke-linecap="round" stroke-linejoin="round"/>
<path d="M6.0009 6C7.24354 6 8.2509 4.99264 8.2509 3.75C8.2509 2.50736 7.24354 1.5 6.0009 1.5C4.75826 1.5 3.7509 2.50736 3.7509 3.75C3.7509 4.99264 4.75826 6 6.0009 6Z" stroke="#525252" stroke-linecap="round" stroke-linejoin="round"/>
</svg>
