<svg width="12" height="12" viewBox="0 0 12 12" fill="none" xmlns="http://www.w3.org/2000/svg">
<path d="M7 5C7.46594 5 7.69891 5 7.88268 4.92388C8.12771 4.82239 8.32239 4.62771 8.42388 4.38268C8.5 4.19891 8.5 3.96594 8.5 3.5C8.5 3.03406 8.5 2.80109 8.42388 2.61732C8.32239 2.37229 8.12771 2.17761 7.88268 2.07612C7.69891 2 7.46594 2 7 2L3 2C2.53406 2 2.30109 2 2.11732 2.07612C1.87229 2.17761 1.67761 2.37229 1.57612 2.61732C1.5 2.80109 1.5 3.03406 1.5 3.5C1.5 3.96594 1.5 4.19891 1.57612 4.38268C1.67761 4.62771 1.87229 4.82239 2.11732 4.92388C2.30109 5 2.53406 5 3 5L7 5Z" stroke="#525252" stroke-linecap="round" stroke-linejoin="round"/>
<path d="M9 10C9.46594 10 9.69891 10 9.88268 9.92388C10.1277 9.82239 10.3224 9.62771 10.4239 9.38268C10.5 9.19891 10.5 8.96594 10.5 8.5C10.5 8.03406 10.5 7.80109 10.4239 7.61732C10.3224 7.37229 10.1277 7.17761 9.88268 7.07612C9.69891 7 9.46594 7 9 7H3C2.53406 7 2.30109 7 2.11732 7.07612C1.87229 7.17761 1.67761 7.37229 1.57612 7.61732C1.5 7.80109 1.5 8.03406 1.5 8.5C1.5 8.96594 1.5 9.19891 1.57612 9.38268C1.67761 9.62771 1.87229 9.82239 2.11732 9.92388C2.30109 10 2.53406 10 3 10L9 10Z" stroke="#525252" stroke-linecap="round" stroke-linejoin="round"/>
</svg>
