<svg width="12" height="12" viewBox="0 0 12 12" fill="none" xmlns="http://www.w3.org/2000/svg">
<path d="M5 9V3C5 2.53406 5 2.30109 4.92388 2.11732C4.82239 1.87229 4.62771 1.67761 4.38268 1.57612C4.19891 1.5 3.96594 1.5 3.5 1.5C3.03406 1.5 2.80109 1.5 2.61732 1.57612C2.37229 1.67761 2.17761 1.87229 2.07612 2.11732C2 2.30109 2 2.53406 2 3V9C2 9.46594 2 9.69891 2.07612 9.88268C2.17761 10.1277 2.37229 10.3224 2.61732 10.4239C2.80109 10.5 3.03406 10.5 3.5 10.5C3.96594 10.5 4.19891 10.5 4.38268 10.4239C4.62771 10.3224 4.82239 10.1277 4.92388 9.88268C5 9.69891 5 9.46594 5 9Z" stroke="#525252" stroke-linecap="round" stroke-linejoin="round"/>
<path d="M10 9V5C10 4.53406 10 4.30109 9.92388 4.11732C9.82239 3.87229 9.62771 3.67761 9.38268 3.57612C9.19891 3.5 8.96594 3.5 8.5 3.5C8.03406 3.5 7.80109 3.5 7.61732 3.57612C7.37229 3.67761 7.17761 3.87229 7.07612 4.11732C7 4.30109 7 4.53406 7 5V9C7 9.46594 7 9.69891 7.07612 9.88268C7.17761 10.1277 7.37229 10.3224 7.61732 10.4239C7.80109 10.5 8.03406 10.5 8.5 10.5C8.96594 10.5 9.19891 10.5 9.38268 10.4239C9.62771 10.3224 9.82239 10.1277 9.92388 9.88268C10 9.69891 10 9.46594 10 9Z" stroke="#525252" stroke-linecap="round" stroke-linejoin="round"/>
</svg>
