<svg width="14" height="14" viewBox="0 0 14 14" fill="none" xmlns="http://www.w3.org/2000/svg">
<path d="M1.39411 10.5575L6.19196 2.27031C6.45713 1.81229 6.58971 1.58329 6.76269 1.50637C6.91357 1.43928 7.08582 1.43928 7.2367 1.50637C7.40968 1.58329 7.54226 1.81229 7.80742 2.2703L12.6053 10.5575C12.8714 11.0172 13.0045 11.247 12.9848 11.4356C12.9676 11.6002 12.8814 11.7497 12.7476 11.8469C12.5943 11.9585 12.3287 11.9585 11.7975 11.9585H2.20185C1.67071 11.9585 1.40514 11.9585 1.25174 11.8469C1.11795 11.7497 1.03175 11.6002 1.0146 11.4356C0.994934 11.247 1.12799 11.0172 1.39411 10.5575Z" stroke="#525252" stroke-linecap="round" stroke-linejoin="round"/>
</svg>
