<svg width="14" height="14" viewBox="0 0 14 14" fill="none" xmlns="http://www.w3.org/2000/svg">
<path d="M7.0013 9.91667C4.90722 9.91667 3.20964 8.21908 3.20964 6.125V2.65741C3.20964 2.35514 3.20964 2.20401 3.26429 2.08681C3.32225 1.96251 3.42215 1.86261 3.54644 1.80465C3.66365 1.75 3.81478 1.75 4.11704 1.75H9.88556C10.1878 1.75 10.339 1.75 10.4562 1.80465C10.5805 1.86261 10.6804 1.96251 10.7383 2.08681C10.793 2.20401 10.793 2.35514 10.793 2.65741V6.125C10.793 8.21908 9.09538 9.91667 7.0013 9.91667ZM7.0013 9.91667V12.25M9.91797 12.25H4.08464M12.8346 2.91667V5.83333M1.16797 2.91667V5.83333" stroke="#525252" stroke-linecap="round" stroke-linejoin="round"/>
</svg>
