<svg width="14" height="14" viewBox="0 0 14 14" fill="none" xmlns="http://www.w3.org/2000/svg">
<path d="M8.16678 12.2503H5.83345M10.5001 4.66699C10.5001 3.73873 10.1314 2.8485 9.47499 2.19212C8.81861 1.53574 7.92837 1.16699 7.00011 1.16699C6.07186 1.16699 5.18162 1.53574 4.52524 2.19212C3.86886 2.8485 3.50011 3.73873 3.50011 4.66699C3.50011 6.4696 3.04539 7.7038 2.53742 8.52015C2.10894 9.20875 1.8947 9.55305 1.90255 9.6491C1.91125 9.75545 1.93378 9.79601 2.01948 9.85958C2.09688 9.91699 2.44579 9.91699 3.14361 9.91699H10.8566C11.5544 9.91699 11.9033 9.91699 11.9807 9.85958C12.0664 9.79601 12.089 9.75545 12.0977 9.6491C12.1055 9.55305 11.8913 9.20875 11.4628 8.52015C10.9548 7.7038 10.5001 6.4696 10.5001 4.66699Z" stroke="#525252" stroke-linecap="round" stroke-linejoin="round"/>
</svg>
