<svg width="14" height="14" viewBox="0 0 14 14" fill="none" xmlns="http://www.w3.org/2000/svg">
<g clip-path="url(#clip0_441_1430)">
<path d="M10.5013 1.16699L12.8346 3.50033M1.16797 12.8337L1.91254 10.1036C1.96111 9.92546 1.9854 9.83641 2.02269 9.75336C2.05579 9.67962 2.09647 9.60952 2.14407 9.54419C2.19768 9.47062 2.26295 9.40534 2.3935 9.2748L8.42132 3.24698C8.53682 3.13147 8.59458 3.07372 8.66117 3.05208C8.71975 3.03305 8.78285 3.03305 8.84143 3.05208C8.90803 3.07372 8.96578 3.13147 9.08128 3.24698L10.7547 4.92034C10.8702 5.03585 10.9279 5.0936 10.9495 5.1602C10.9686 5.21877 10.9686 5.28188 10.9495 5.34046C10.9279 5.40705 10.8702 5.4648 10.7547 5.58031L4.72683 11.6081C4.59628 11.7387 4.53101 11.8039 4.45743 11.8576C4.3921 11.9052 4.32201 11.9458 4.24827 11.9789C4.16522 12.0162 4.07616 12.0405 3.89805 12.0891L1.16797 12.8337Z" stroke="#E8EAE9" stroke-linecap="round" stroke-linejoin="round"/>
</g>
<defs>
<clipPath id="clip0_441_1430">
<rect width="14" height="14" fill="white"/>
</clipPath>
</defs>
</svg>
