<svg width="14" height="14" viewBox="0 0 14 14" fill="none" xmlns="http://www.w3.org/2000/svg">
<path d="M5.83301 10.5V3.5C5.83301 2.9564 5.83301 2.6846 5.7442 2.4702C5.62579 2.18434 5.39867 1.95722 5.11281 1.83881C4.89841 1.75 4.62661 1.75 4.08301 1.75C3.53941 1.75 3.26761 1.75 3.05321 1.83881C2.76734 1.95722 2.54022 2.18434 2.42182 2.4702C2.33301 2.6846 2.33301 2.9564 2.33301 3.5V10.5C2.33301 11.0436 2.33301 11.3154 2.42182 11.5298C2.54022 11.8157 2.76734 12.0428 3.05321 12.1612C3.26761 12.25 3.53941 12.25 4.08301 12.25C4.62661 12.25 4.89841 12.25 5.11281 12.1612C5.39867 12.0428 5.62579 11.8157 5.7442 11.5298C5.83301 11.3154 5.83301 11.0436 5.83301 10.5Z" stroke="#525252" stroke-linecap="round" stroke-linejoin="round"/>
<path d="M11.6663 10.5V5.83333C11.6663 5.28973 11.6663 5.01794 11.5775 4.80354C11.4591 4.51767 11.232 4.29055 10.9461 4.17214C10.7317 4.08333 10.4599 4.08333 9.91634 4.08333C9.37274 4.08333 9.10094 4.08333 8.88654 4.17214C8.60068 4.29055 8.37356 4.51767 8.25515 4.80354C8.16634 5.01794 8.16634 5.28973 8.16634 5.83333V10.5C8.16634 11.0436 8.16634 11.3154 8.25515 11.5298C8.37356 11.8157 8.60068 12.0428 8.88654 12.1612C9.10094 12.25 9.37274 12.25 9.91634 12.25C10.4599 12.25 10.7317 12.25 10.9461 12.1612C11.232 12.0428 11.4591 11.8157 11.5775 11.5298C11.6663 11.3154 11.6663 11.0436 11.6663 10.5Z" stroke="#525252" stroke-linecap="round" stroke-linejoin="round"/>
</svg>
