<svg width="14" height="14" viewBox="0 0 14 14" fill="none" xmlns="http://www.w3.org/2000/svg">
<path d="M12.25 7C12.25 9.89949 9.89949 12.25 7 12.25C6.30167 12.25 5.63518 12.1137 5.0257 11.8661C4.90906 11.8188 4.85073 11.7951 4.80359 11.7845C4.75747 11.7742 4.72334 11.7704 4.67608 11.7704C4.62776 11.7704 4.57513 11.7791 4.46988 11.7967L2.39444 12.1426C2.17711 12.1788 2.06844 12.1969 1.98986 12.1632C1.92108 12.1337 1.86628 12.0789 1.83678 12.0101C1.80307 11.9316 1.82118 11.8229 1.85741 11.6056L2.20331 9.53012C2.22086 9.42487 2.22963 9.37224 2.22962 9.32392C2.22961 9.27666 2.22583 9.24253 2.2155 9.19641C2.20493 9.14927 2.18124 9.09094 2.13387 8.9743C1.88635 8.36482 1.75 7.69833 1.75 7C1.75 4.10051 4.10051 1.75 7 1.75C9.89949 1.75 12.25 4.10051 12.25 7Z" stroke="#E8EAE9" stroke-linecap="round" stroke-linejoin="round"/>
</svg>
