<svg width="14" height="14" viewBox="0 0 14 14" fill="none" xmlns="http://www.w3.org/2000/svg">
<path d="M12.1283 7.35461C12.2707 7.23255 12.3419 7.17152 12.368 7.0989C12.3909 7.03515 12.3909 6.96543 12.368 6.90169C12.3419 6.82906 12.2707 6.76803 12.1283 6.64597L7.18704 2.41061C6.9419 2.20049 6.81934 2.09544 6.71557 2.09286C6.62538 2.09063 6.53924 2.13025 6.48225 2.20018C6.41667 2.28064 6.41667 2.44207 6.41667 2.76493V5.27049C5.17144 5.48834 4.03176 6.11932 3.18483 7.06671C2.26148 8.09959 1.75072 9.43626 1.75 10.8217V11.1787C2.36212 10.4413 3.12638 9.84493 3.99044 9.43041C4.75224 9.06496 5.57574 8.84848 6.41667 8.79143V11.2357C6.41667 11.5585 6.41667 11.7199 6.48225 11.8004C6.53924 11.8703 6.62538 11.91 6.71557 11.9077C6.81934 11.9051 6.9419 11.8001 7.18704 11.59L12.1283 7.35461Z" stroke="#E8EAE9" stroke-linecap="round" stroke-linejoin="round"/>
</svg>
