<svg width="14" height="14" viewBox="0 0 14 14" fill="none" xmlns="http://www.w3.org/2000/svg">
<path d="M11.8953 11.3498C11.7639 12.2035 11.0294 12.8337 10.1656 12.8337H2.33366C1.68933 12.8337 1.16699 12.3113 1.16699 11.667V7.58366C1.16699 6.93933 1.68933 6.41699 2.33366 6.41699H3.70457C3.93509 6.41699 4.144 6.28123 4.23762 6.07057L6.29044 1.45173C6.3674 1.27858 6.5391 1.16699 6.72859 1.16699C7.523 1.16699 8.16699 1.81099 8.16699 2.6054V4.66699C8.16699 4.98916 8.42816 5.25033 8.75033 5.25033H10.7938C11.8664 5.25033 12.6866 6.20635 12.5235 7.26643L11.8953 11.3498Z" fill="#47CD89"/>
</svg>
