<svg width="14" height="14" viewBox="0 0 14 14" fill="none" xmlns="http://www.w3.org/2000/svg">
<path d="M8.16667 5.83301C8.71026 5.83301 8.98206 5.83301 9.19646 5.7442C9.48233 5.62579 9.70945 5.39867 9.82786 5.11281C9.91667 4.89841 9.91667 4.62661 9.91667 4.08301C9.91667 3.53941 9.91667 3.26761 9.82786 3.05321C9.70945 2.76734 9.48233 2.54022 9.19646 2.42182C8.98206 2.33301 8.71027 2.33301 8.16667 2.33301L3.5 2.33301C2.9564 2.33301 2.6846 2.33301 2.4702 2.42181C2.18434 2.54022 1.95722 2.76734 1.83881 3.05321C1.75 3.26761 1.75 3.53941 1.75 4.08301C1.75 4.62661 1.75 4.89841 1.83881 5.1128C1.95722 5.39867 2.18434 5.62579 2.4702 5.7442C2.6846 5.83301 2.9564 5.83301 3.5 5.83301L8.16667 5.83301Z" stroke="#E8EAE9" stroke-linecap="round" stroke-linejoin="round"/>
<path d="M10.5 11.6663C11.0436 11.6663 11.3154 11.6663 11.5298 11.5775C11.8157 11.4591 12.0428 11.232 12.1612 10.9461C12.25 10.7317 12.25 10.4599 12.25 9.91634C12.25 9.37274 12.25 9.10094 12.1612 8.88654C12.0428 8.60068 11.8157 8.37356 11.5298 8.25515C11.3154 8.16634 11.0436 8.16634 10.5 8.16634H3.5C2.9564 8.16634 2.6846 8.16634 2.4702 8.25515C2.18434 8.37356 1.95722 8.60068 1.83881 8.88654C1.75 9.10094 1.75 9.37274 1.75 9.91634C1.75 10.4599 1.75 10.7317 1.83881 10.9461C1.95722 11.232 2.18434 11.4591 2.4702 11.5775C2.6846 11.6663 2.9564 11.6663 3.5 11.6663L10.5 11.6663Z" stroke="#E8EAE9" stroke-linecap="round" stroke-linejoin="round"/>
</svg>
