<svg width="14" height="14" viewBox="0 0 14 14" fill="none" xmlns="http://www.w3.org/2000/svg">
<path d="M6.12549 6.99963H2.91716M2.86778 7.16968L1.50574 11.2382C1.39874 11.5579 1.34524 11.7177 1.38363 11.8161C1.41697 11.9016 1.48859 11.9664 1.57695 11.991C1.6787 12.0194 1.83239 11.9503 2.13977 11.812L11.8881 7.4252C12.1882 7.29019 12.3382 7.22268 12.3845 7.12891C12.4248 7.04743 12.4248 6.95184 12.3845 6.87037C12.3382 6.77659 12.1882 6.70908 11.8881 6.57407L2.13637 2.18581C1.82992 2.0479 1.6767 1.97895 1.57504 2.00724C1.48676 2.0318 1.41516 2.09643 1.3817 2.18173C1.34317 2.27996 1.3961 2.43944 1.50196 2.75838L2.86816 6.87453C2.88634 6.9293 2.89543 6.95669 2.89902 6.98471C2.9022 7.00956 2.90217 7.03473 2.89892 7.05958C2.89526 7.08758 2.8861 7.11494 2.86778 7.16968Z" stroke="#17181C" stroke-linecap="round" stroke-linejoin="round"/>
</svg>
