<svg width="14" height="14" viewBox="0 0 14 14" fill="none" xmlns="http://www.w3.org/2000/svg">
<path d="M5.48158 11.3001L5.82251 12.0669C5.92385 12.2951 6.08925 12.4891 6.29864 12.6252C6.50802 12.7613 6.7524 12.8337 7.00214 12.8337C7.25187 12.8337 7.49625 12.7613 7.70563 12.6252C7.91502 12.4891 8.08042 12.2951 8.18177 12.0669L8.52269 11.3001C8.64405 11.0281 8.84819 10.8012 9.10602 10.652C9.36548 10.5023 9.66563 10.4386 9.96352 10.4699L10.7977 10.5587C11.046 10.5849 11.2966 10.5386 11.5191 10.4253C11.7416 10.3119 11.9264 10.1365 12.0512 9.92023C12.1761 9.70408 12.2357 9.45632 12.2226 9.20701C12.2094 8.95769 12.1242 8.71754 11.9773 8.5157L11.4834 7.83709C11.3076 7.59365 11.2136 7.30063 11.2151 7.00033C11.215 6.70083 11.3099 6.40903 11.486 6.16681L11.9799 5.4882C12.1268 5.28635 12.212 5.0462 12.2251 4.79688C12.2383 4.54757 12.1787 4.29981 12.0538 4.08366C11.929 3.86738 11.7442 3.69194 11.5217 3.57862C11.2992 3.46531 11.0486 3.41897 10.8003 3.44523L9.96612 3.53403C9.66823 3.56531 9.36807 3.50156 9.10862 3.3519C8.85027 3.20181 8.64608 2.97378 8.52528 2.70051L8.18177 1.93375C8.08042 1.70551 7.91502 1.51158 7.70563 1.37547C7.49625 1.23937 7.25187 1.16695 7.00214 1.16699C6.7524 1.16695 6.50802 1.23937 6.29864 1.37547C6.08925 1.51158 5.92385 1.70551 5.82251 1.93375L5.48158 2.70051C5.36079 2.97378 5.15659 3.20181 4.89825 3.3519C4.63879 3.50156 4.33864 3.56531 4.04075 3.53403L3.20399 3.44523C2.95568 3.41897 2.70509 3.46531 2.48259 3.57862C2.26009 3.69194 2.07525 3.86738 1.95047 4.08366C1.82553 4.29981 1.76601 4.54757 1.77913 4.79688C1.79224 5.0462 1.87743 5.28635 2.02436 5.4882L2.51825 6.16681C2.69438 6.40903 2.78923 6.70083 2.78917 7.00033C2.78923 7.29982 2.69438 7.59162 2.51825 7.83384L2.02436 8.51246C1.87743 8.7143 1.79224 8.95445 1.77913 9.20377C1.76601 9.45308 1.82553 9.70084 1.95047 9.91699C2.07537 10.1332 2.26024 10.3085 2.4827 10.4218C2.70517 10.5351 2.9557 10.5815 3.20399 10.5554L4.03815 10.4666C4.33604 10.4353 4.6362 10.4991 4.89565 10.6488C5.15496 10.7984 5.36011 11.0265 5.48158 11.3001Z" stroke="#525252" stroke-linecap="round" stroke-linejoin="round"/>
<path d="M7.00109 8.75033C7.96759 8.75033 8.75109 7.96682 8.75109 7.00033C8.75109 6.03383 7.96759 5.25033 7.00109 5.25033C6.0346 5.25033 5.25109 6.03383 5.25109 7.00033C5.25109 7.96682 6.0346 8.75033 7.00109 8.75033Z" stroke="#525252" stroke-linecap="round" stroke-linejoin="round"/>
</svg>
