<svg width="14" height="14" viewBox="0 0 14 14" fill="none" xmlns="http://www.w3.org/2000/svg">
<path d="M7.0013 1.16699L8.17494 4.21846C8.33945 4.64618 8.4217 4.86003 8.54961 5.03992C8.66298 5.19935 8.80227 5.33865 8.96171 5.45201C9.14159 5.57992 9.35545 5.66218 9.78317 5.82668L12.8346 7.00033L9.78317 8.17397C9.35545 8.33847 9.14159 8.42073 8.96171 8.54864C8.80227 8.662 8.66298 8.8013 8.54961 8.96073C8.4217 9.14062 8.33945 9.35448 8.17494 9.78219L7.0013 12.8337L5.82766 9.78219C5.66315 9.35448 5.5809 9.14062 5.45299 8.96073C5.33963 8.8013 5.20033 8.662 5.0409 8.54864C4.86101 8.42073 4.64715 8.33847 4.21944 8.17397L1.16797 7.00033L4.21943 5.82668C4.64715 5.66218 4.86101 5.57992 5.0409 5.45201C5.20033 5.33865 5.33963 5.19935 5.45299 5.03992C5.5809 4.86003 5.66315 4.64618 5.82766 4.21846L7.0013 1.16699Z" fill="#525252" stroke="#525252" stroke-linecap="round" stroke-linejoin="round"/>
</svg>
