<svg width="14" height="14" viewBox="0 0 14 14" fill="none" xmlns="http://www.w3.org/2000/svg">
<path d="M1.96769 3.54123C2.09732 2.69861 2.16214 2.27731 2.36868 1.96074C2.55072 1.68174 2.80861 1.46049 3.11205 1.323C3.45633 1.16699 3.8826 1.16699 4.73513 1.16699H10.9663C11.6197 1.16699 11.9464 1.16699 12.1959 1.29415C12.4155 1.406 12.5939 1.58448 12.7058 1.804C12.833 2.05357 12.833 2.38026 12.833 3.03366V5.71699C12.833 6.37039 12.833 6.69708 12.7058 6.94665C12.5939 7.16617 12.4155 7.34465 12.1959 7.4565C11.9464 7.58366 11.6197 7.58366 10.9663 7.58366H10.5228C10.3033 7.58366 10.1935 7.58366 10.0977 7.61818C10.013 7.6487 9.93647 7.69842 9.87417 7.76343C9.8037 7.83699 9.75912 7.9373 9.66995 8.13793L7.70951 12.5489C7.63255 12.7221 7.46084 12.8337 7.27136 12.8337C6.47695 12.8337 5.83296 12.1897 5.83296 11.3953V9.68366C5.83296 9.35696 5.83296 9.19361 5.76938 9.06883C5.71345 8.95907 5.62421 8.86983 5.51445 8.8139C5.38967 8.75033 5.22632 8.75033 4.89962 8.75033H4.43C3.30557 8.75033 2.74335 8.75033 2.34108 8.52158C1.988 8.32081 1.71576 8.00348 1.57101 7.62398C1.40609 7.1916 1.49158 6.63592 1.66256 5.52456L1.96769 3.54123Z" fill="#F97066"/>
</svg>
